<svg xmlns="http://www.w3.org/2000/svg" width="960" height="570" viewBox="0 0 960 570" preserveAspectRatio="none">
  <path d="M480,12
           C375,12 324,66 342,120
           C300,174 330,198 294,252
           C264,294 294,324 258,372
           C228,414 240,456 234,492
           C246,528 276,552 315,570
           L645,570
           C684,552 714,528 726,492
           C720,456 732,414 702,372
           C666,324 696,294 666,252
           C630,198 660,174 618,120
           C636,66 585,12 480,12
           Z"
        fill="#3d8a42" stroke="#173420" stroke-width="14" stroke-linejoin="round" />
  <path d="M480,12 C426,12 384,48 390,84 C426,36 456,18 480,18 Z" fill="#2c6b30" opacity="0.5" />
  <path d="M342,120 C300,174 330,198 294,252 C264,294 294,324 258,372 C228,414 240,456 234,492 C246,528 276,552 315,570 L480,570 L480,78 Z"
        fill="#4ea154" opacity="0.35" />
</svg>
